Coordinates
version=1
nRows=9
nColumns=36
inDegrees=yes

Units are S.I. units (second, meters, Newtons, ...)
If the header above contains a line with 'inDegrees', this indicates whether rotational values are in degrees (yes) or radians (no).

endheader
time	pelvis_tilt	pelvis_list	pelvis_rotation	pelvis_tx	pelvis_ty	pelvis_tz	hip_flexion_r	hip_adduction_r	hip_rotation_r	knee_angle_r	knee_angle_r_beta	ankle_angle_r	subtalar_angle_r	mtp_angle_r	hip_flexion_l	hip_adduction_l	hip_rotation_l	knee_angle_l	knee_angle_l_beta	ankle_angle_l	subtalar_angle_l	mtp_angle_l	lumbar_extension	lumbar_bending	lumbar_rotation	arm_flex_r	arm_add_r	arm_rot_r	elbow_flex_r	pro_sup_r	arm_flex_l	arm_add_l	arm_rot_l	elbow_flex_l	pro_sup_l
     12.53333330	     -8.00114461	     -4.07685188	      6.54783493	      0.29255525	      0.90624158	     -0.17303223	     16.74638478	     -0.12992337	     -6.52662192	     40.45355619	      0.70604775	     11.01271592	    -34.15127132	     -7.49999987	      8.61956059	      3.24838485	     14.96343521	      4.71789677	      0.08234283	      4.92032779	     -9.57888017	     -7.49999987	     -1.73857391	     -1.78755638	     -4.90631465	     40.17637810	      3.68145023	     63.12315105	    128.17962252	     94.49497955	     60.31763470	      6.38898784	     78.66370921	    124.65816644	     62.22766915
     12.55000000	     -7.80462861	     -4.03640680	      6.70364052	      0.29743866	      0.90269843	     -0.17561899	     16.68458016	     -0.06234419	     -7.11876907	     41.31659504	      0.72111062	      9.68572799	    -34.20982285	     -7.49999987	      8.39393259	      3.33205202	     15.22115474	      4.83918816	      0.08445977	      4.91318612	     -9.50867283	     -7.49999987	     -1.90658456	     -1.70043168	     -4.93223366	     39.98806273	      3.72637200	     63.09978332	    128.34370187	     94.51482619	     60.27337729	      6.48020402	     78.81929334	    124.86112685	     62.23590924
     12.56666670	     -7.65332298	     -3.93397515	      6.65072763	      0.29670221	      0.90703670	     -0.17558316	     16.58276673	     -0.02984870	     -7.25531571	     41.83072076	      0.73008381	      9.03694133	    -34.20713708	     -7.49999987	      8.26566244	      3.45118703	     15.18052781	      5.04084793	      0.08797939	      5.06230969	     -9.64432379	     -7.49999987	     -2.08340196	     -1.67104527	     -4.79402529	     39.73863337	      3.77519387	     63.25987441	    128.57231616	     94.54882003	     60.17497740	      6.50979688	     79.06418049	    125.00313496	     62.23807524
     12.58333330	     -7.41899253	     -3.77187539	      6.62001207	      0.29719795	      0.90698454	     -0.17522718	     16.35195927	     -0.09953821	     -7.32653314	     42.43190973	      0.74057653	      8.04124544	    -34.19991960	     -7.49999987	      7.97944839	      3.60585485	     15.28257202	      5.17878543	      0.09038686	      5.01840055	     -9.70912392	     -7.49999987	     -2.36374080	     -1.73247567	     -4.66647335	     39.33622677	      3.89292317	     63.33241961	    128.80805987	     95.21573176	     60.21318079	      6.54569380	     79.26668129	    124.90188709	     61.88272999
     12.60000000	     -7.31021103	     -3.51982884	      6.44712392	      0.29190424	      0.90370330	     -0.17841131	     16.83890084	     -0.42755662	     -7.18187435	     43.81282895	      0.76467812	      7.68174991	    -34.23159851	     -7.49999987	      8.03608081	      4.01691451	     15.28675707	      5.49013550	      0.09582094	      5.20944237	     -9.97599423	     -7.49999987	     -2.64125675	     -1.69186820	     -4.61816474	     39.41321566	      4.05185060	     63.49843980	    128.81765740	     95.22805087	     60.56665967	      6.55920731	     79.11166688	    124.79838418	     61.86493640
     12.61666670	     -7.13294505	     -3.34284090	      6.40473383	      0.29639073	      0.90892909	     -0.18043175	     16.91089626	     -0.71136592	     -7.11454031	     44.63401548	      0.77901053	      7.06559464	    -34.21523867	     -7.49999987	      7.73137896	      4.29255697	     15.43516426	      5.43915681	      0.09493119	      5.17368775	    -10.00528001	     -7.49999987	     -2.83275694	     -1.55755220	     -4.53764334	     39.20239598	      4.00936529	     63.73444972	    128.69332892	     95.21452067	     60.32485935	      6.70055460	     79.30139958	    124.63814634	     61.84776866
     12.63333330	     -7.01998880	     -3.15793045	      6.20948360	      0.29160367	      0.90564621	     -0.18313313	     17.33693987	     -1.04337545	     -6.87204491	     45.77118286	      0.79885784	      6.84755931	    -34.24667547	     -7.49999987	      7.62699485	      4.63183592	     15.33959913	      5.47045617	      0.09547747	      5.17323444	    -10.33074087	     -7.49999987	     -3.02674599	     -1.35351533	     -4.40634837	     39.39954954	      3.98328203	     63.93548985	    128.65519696	     95.21083511	     60.57189701	      6.89233232	     79.23261312	    124.42290178	     61.80999365
     12.65000000	     -6.96212630	     -2.95078129	      6.02049130	      0.29199726	      0.90364442	     -0.18274362	     17.77143549	     -1.31033530	     -6.59006369	     46.99197086	      0.82016461	      6.54141270	    -34.22853064	     -7.49999987	      7.61456515	      4.98260389	     15.40451029	      5.62409815	      0.09815903	      4.94907493	    -11.04026215	     -7.49999987	     -3.05437739	     -1.28650532	     -4.22963160	     39.59167685	      3.88960580	     63.95422863	    128.66272151	     94.65833422	     60.86999188	      7.04649828	     79.11346378	    123.94377992	     61.26759185
     12.66666670	     -6.97518631	     -2.78839471	      5.75893178	      0.29199214	      0.90606466	     -0.18194558	     18.25308877	     -1.48635930	     -6.33651681	     48.00737769	      0.83788681	      6.18071907	    -34.23699494	     -7.49999987	      7.50826847	      5.21696898	     15.34007519	      5.44212646	      0.09498303	      4.91323594	    -11.05547200	     -7.49999987	     -3.00061460	     -1.17277541	     -3.96704727	     39.64087444	      3.76913895	     63.89877623	    128.81327048	     94.67950677	     60.89948567	      7.13328359	     79.05367190	    123.49999196	     61.02656959
